<svg xmlns="http://www.w3.org/2000/svg" height="512pt" version="1.1" viewBox="0 0 512 512" width="512pt">
<g id="surface1">
<path d="M 512 256 C 512 187.621094 485.371094 123.332031 437.019531 74.980469 C 388.667969 26.628906 324.378906 0 256 0 C 187.621094 0 123.335938 26.628906 74.980469 74.980469 C 26.628906 123.332031 0 187.621094 0 256 C 0 324.378906 26.628906 388.667969 74.980469 437.019531 C 123.335938 485.371094 187.621094 512 256 512 L 256.003906 512 C 324.382812 512 388.667969 485.371094 437.019531 437.019531 C 485.371094 388.667969 512 324.378906 512 256 Z M 241 431.027344 L 241 481.492188 C 210.753906 479.5 182.117188 471.535156 156.257812 458.761719 L 181.433594 415.152344 C 200.042969 423.886719 220.148438 429.273438 241 431.027344 Z M 271 431.019531 C 292.113281 429.226562 312.175781 423.679688 330.511719 415.054688 L 355.742188 458.761719 C 329.882812 471.53125 301.246094 479.496094 271 481.488281 Z M 256 401.664062 C 230.386719 401.664062 205.785156 395.097656 184.109375 382.761719 C 183.800781 382.550781 183.496094 382.339844 183.167969 382.152344 C 182.894531 381.992188 182.613281 381.863281 182.332031 381.726562 C 171.757812 375.503906 161.902344 367.90625 152.996094 359 C 144.101562 350.105469 136.507812 340.253906 130.289062 329.691406 C 130.144531 329.402344 130.011719 329.113281 129.851562 328.832031 C 129.65625 328.496094 129.4375 328.179688 129.222656 327.859375 C 116.894531 306.195312 110.335938 281.601562 110.335938 256 C 110.335938 175.679688 175.679688 110.332031 256.003906 110.332031 C 336.320312 110.332031 401.667969 175.679688 401.667969 256 C 401.667969 336.320312 336.320312 401.664062 256 401.664062 Z M 271 80.980469 L 271 30.511719 C 301.246094 32.503906 329.882812 40.46875 355.742188 53.238281 L 330.511719 96.941406 C 312.175781 88.320312 292.113281 82.773438 271 80.980469 Z M 481.492188 241 L 431.019531 241 C 429.226562 219.886719 423.679688 199.828125 415.054688 181.488281 L 458.761719 156.257812 C 471.535156 182.117188 479.5 210.753906 481.492188 241 Z M 431.019531 271 L 481.492188 271 C 479.5 301.246094 471.535156 329.882812 458.761719 355.742188 L 415.058594 330.511719 C 423.683594 312.171875 429.226562 292.113281 431.019531 271 Z M 443.726562 130.296875 L 400.015625 155.53125 C 388.164062 138.59375 373.40625 123.835938 356.46875 111.984375 L 381.703125 68.273438 C 406.183594 84.71875 427.28125 105.820312 443.726562 130.296875 Z M 241 30.511719 L 241 80.980469 C 151.132812 88.617188 80.335938 164.191406 80.335938 256 C 80.335938 282.203125 86.035156 307.527344 96.847656 330.566406 L 53.242188 355.742188 C 38.371094 325.640625 30 291.78125 30 256 C 30 136.425781 123.351562 38.257812 241 30.511719 Z M 68.277344 381.703125 L 111.886719 356.523438 C 117.757812 364.902344 124.398438 372.828125 131.785156 380.214844 C 139.167969 387.597656 147.097656 394.238281 155.476562 400.109375 L 130.296875 443.722656 C 105.820312 427.28125 84.722656 406.183594 68.277344 381.703125 Z M 381.703125 443.726562 L 356.46875 400.015625 C 373.40625 388.164062 388.164062 373.40625 400.015625 356.46875 L 443.726562 381.703125 C 427.28125 406.179688 406.179688 427.28125 381.703125 443.726562 Z M 381.703125 443.726562 " style=" stroke:none;fill-rule:nonzero;fill:rgb(0%,0%,0%);fill-opacity:1;" />
<path d="M 302.199219 188.589844 L 188.589844 302.199219 C 182.730469 308.054688 182.730469 317.554688 188.589844 323.410156 C 191.519531 326.339844 195.359375 327.804688 199.195312 327.804688 C 203.035156 327.804688 206.875 326.339844 209.800781 323.410156 L 323.410156 209.800781 C 329.269531 203.945312 329.269531 194.445312 323.410156 188.589844 C 317.554688 182.730469 308.054688 182.730469 302.199219 188.589844 Z M 302.199219 188.589844 " style=" stroke:none;fill-rule:nonzero;fill:rgb(0%,0%,0%);fill-opacity:1;" />
<path d="M 301.441406 286.441406 C 297.5 286.441406 293.628906 288.039062 290.839844 290.839844 C 288.039062 293.628906 286.441406 297.488281 286.441406 301.441406 C 286.441406 305.390625 288.039062 309.261719 290.839844 312.050781 C 293.628906 314.839844 297.5 316.441406 301.441406 316.441406 C 305.390625 316.441406 309.261719 314.839844 312.050781 312.050781 C 314.839844 309.261719 316.441406 305.390625 316.441406 301.441406 C 316.441406 297.492188 314.839844 293.628906 312.050781 290.839844 C 309.261719 288.039062 305.390625 286.441406 301.441406 286.441406 Z M 301.441406 286.441406 " style=" stroke:none;fill-rule:nonzero;fill:rgb(0%,0%,0%);fill-opacity:1;" />
<path d="M 210.5625 225.558594 C 214.511719 225.558594 218.371094 223.960938 221.160156 221.160156 C 223.960938 218.371094 225.5625 214.5 225.5625 210.558594 C 225.5625 206.609375 223.960938 202.742188 221.160156 199.949219 C 218.371094 197.160156 214.511719 195.558594 210.5625 195.558594 C 206.609375 195.558594 202.742188 197.160156 199.949219 199.949219 C 197.160156 202.742188 195.5625 206.609375 195.5625 210.558594 C 195.5625 214.5 197.160156 218.371094 199.949219 221.160156 C 202.738281 223.960938 206.609375 225.558594 210.5625 225.558594 Z M 210.5625 225.558594 " style=" stroke:none;fill-rule:nonzero;fill:rgb(0%,0%,0%);fill-opacity:1;" />
</g>
</svg>