<svg xmlns="http://www.w3.org/2000/svg" height="512pt" version="1.1" viewBox="0 0 512.00002 512" width="512pt">
<g id="surface1">
<path d="M 323.695312 188.753906 C 317.832031 182.890625 308.324219 182.890625 302.460938 188.753906 L 188.753906 302.460938 C 182.890625 308.324219 182.890625 317.828125 188.753906 323.691406 C 191.6875 326.625 195.527344 328.089844 199.371094 328.089844 C 203.210938 328.089844 207.054688 326.625 209.984375 323.691406 L 323.695312 209.984375 C 329.554688 204.121094 329.554688 194.617188 323.695312 188.753906 Z M 323.695312 188.753906 " style=" stroke:none;fill-rule:nonzero;fill:rgb(0%,0%,0%);fill-opacity:1;" />
<path d="M 291.09375 291.085938 C 288.289062 293.878906 286.6875 297.753906 286.6875 301.707031 C 286.6875 305.660156 288.289062 309.53125 291.09375 312.324219 C 293.882812 315.117188 297.75 316.71875 301.703125 316.71875 C 305.65625 316.71875 309.527344 315.117188 312.320312 312.324219 C 315.113281 309.53125 316.714844 305.660156 316.714844 301.707031 C 316.714844 297.753906 315.113281 293.878906 312.320312 291.085938 C 309.527344 288.292969 305.65625 286.691406 301.703125 286.691406 C 297.75 286.691406 293.882812 288.292969 291.09375 291.085938 Z M 291.09375 291.085938 " style=" stroke:none;fill-rule:nonzero;fill:rgb(0%,0%,0%);fill-opacity:1;" />
<path d="M 221.351562 221.355469 C 224.152344 218.5625 225.753906 214.691406 225.753906 210.738281 C 225.753906 206.785156 224.152344 202.917969 221.351562 200.128906 C 218.558594 197.324219 214.695312 195.722656 210.742188 195.722656 C 206.789062 195.722656 202.917969 197.324219 200.125 200.128906 C 197.332031 202.917969 195.730469 206.78125 195.730469 210.738281 C 195.730469 214.691406 197.332031 218.5625 200.125 221.355469 C 202.917969 224.148438 206.789062 225.75 210.742188 225.75 C 214.695312 225.75 218.558594 224.148438 221.351562 221.355469 Z M 221.351562 221.355469 " style=" stroke:none;fill-rule:nonzero;fill:rgb(0%,0%,0%);fill-opacity:1;" />
<path d="M 141.3125 485.28125 C 172.355469 500.863281 206.378906 509.960938 241.210938 511.996094 L 241.210938 401.226562 C 225.722656 399.609375 210.730469 395.515625 196.753906 389.25 Z M 141.3125 485.28125 " style=" stroke:none;fill-rule:nonzero;fill:rgb(0%,0%,0%);fill-opacity:1;" />
<path d="M 401.246094 241.210938 L 512 241.210938 C 509.976562 206.003906 500.878906 172.132812 485.355469 141.269531 L 389.3125 196.71875 C 395.515625 210.550781 399.636719 225.515625 401.246094 241.210938 Z M 401.246094 241.210938 " style=" stroke:none;fill-rule:nonzero;fill:rgb(0%,0%,0%);fill-opacity:1;" />
<path d="M 389.3125 315.722656 L 485.355469 371.175781 C 500.878906 340.3125 509.980469 306.441406 512 271.234375 L 401.246094 271.234375 C 399.636719 286.929688 395.515625 301.894531 389.3125 315.722656 Z M 389.3125 315.722656 " style=" stroke:none;fill-rule:nonzero;fill:rgb(0%,0%,0%);fill-opacity:1;" />
<path d="M 374.253906 170.742188 L 470.289062 115.296875 C 460.8125 100.964844 449.828125 87.476562 437.398438 75.046875 C 424.972656 62.617188 411.484375 51.632812 397.148438 42.15625 L 341.703125 138.195312 C 354.1875 147.261719 365.183594 158.257812 374.253906 170.742188 Z M 374.253906 170.742188 " style=" stroke:none;fill-rule:nonzero;fill:rgb(0%,0%,0%);fill-opacity:1;" />
<path d="M 341.703125 374.253906 L 397.148438 470.289062 C 411.484375 460.8125 424.972656 449.828125 437.398438 437.402344 C 449.828125 424.972656 460.8125 411.484375 470.292969 397.152344 L 374.253906 341.703125 C 365.183594 354.1875 354.1875 365.183594 341.703125 374.253906 Z M 341.703125 374.253906 " style=" stroke:none;fill-rule:nonzero;fill:rgb(0%,0%,0%);fill-opacity:1;" />
<path d="M 129.9375 329.125 C 129.9375 329.121094 129.9375 329.121094 129.933594 329.117188 C 117.175781 307.066406 110.429688 281.855469 110.429688 256.222656 C 110.429688 175.832031 175.832031 110.429688 256.222656 110.429688 C 277.40625 110.429688 297.546875 114.976562 315.726562 123.132812 L 371.175781 27.089844 C 335.945312 9.375 296.804688 0 256.222656 0 C 187.785156 0 123.441406 26.652344 75.046875 75.046875 C 26.652344 123.441406 0 187.785156 0 256.222656 C 0 301.265625 11.863281 345.574219 34.308594 384.363281 C 34.3125 384.371094 34.316406 384.378906 34.320312 384.386719 C 54.28125 418.875 82.140625 448.316406 115.335938 470.222656 L 170.75 374.238281 C 154.371094 362.394531 140.359375 347.128906 129.9375 329.125 Z M 53.222656 356.089844 C 38.011719 325.179688 30.027344 290.953125 30.027344 256.222656 C 30.027344 136.546875 123.460938 38.273438 241.210938 30.519531 L 241.210938 81.039062 C 151.269531 88.683594 80.402344 164.335938 80.402344 256.222656 C 80.402344 282.082031 86.101562 307.589844 96.984375 330.824219 Z M 53.222656 356.089844 " style=" stroke:none;fill-rule:nonzero;fill:rgb(0%,0%,0%);fill-opacity:1;" />
<path d="M 271.238281 401.246094 L 271.238281 511.996094 C 306.445312 509.976562 340.3125 500.878906 371.175781 485.355469 L 315.726562 389.308594 C 301.898438 395.519531 286.933594 399.632812 271.238281 401.246094 Z M 271.238281 401.246094 " style=" stroke:none;fill-rule:nonzero;fill:rgb(0%,0%,0%);fill-opacity:1;" />
</g>
</svg>